SplineFontDB: 3.2
FontName: StabileLuksa
FullName: StabileLuksa
FamilyName: StabileLuksa
Weight: Book
Copyright: Copyright (c) 2023, PC
Version: 001.000
ItalicAngle: 0
UnderlinePosition: -100
UnderlineWidth: 50
Ascent: 800
Descent: 200
InvalidEm: 0
sfntRevision: 0x00010000
LayerCount: 2
Layer: 0 1 "Stra+AX4A-nji" 1
Layer: 1 1 "Prednji" 0
XUID: [1021 212 -1218713349 14503]
StyleMap: 0x0000
FSType: 0
OS2Version: 4
OS2_WeightWidthSlopeOnly: 0
OS2_UseTypoMetrics: 1
CreationTime: 1679413855
ModificationTime: 1679481716
PfmFamily: 17
TTFWeight: 400
TTFWidth: 5
LineGap: 90
VLineGap: 0
Panose: 2 0 5 3 0 0 0 0 0 0
OS2TypoAscent: 800
OS2TypoAOffset: 0
OS2TypoDescent: -200
OS2TypoDOffset: 0
OS2TypoLinegap: 90
OS2WinAscent: 705
OS2WinAOffset: 0
OS2WinDescent: 0
OS2WinDOffset: 0
HheadAscent: 705
HheadAOffset: 0
HheadDescent: 0
HheadDOffset: 0
OS2SubXSize: 650
OS2SubYSize: 700
OS2SubXOff: 0
OS2SubYOff: 140
OS2SupXSize: 650
OS2SupYSize: 700
OS2SupXOff: 0
OS2SupYOff: 480
OS2StrikeYSize: 49
OS2StrikeYPos: 258
OS2CapHeight: 638
OS2XHeight: 541
OS2Vendor: 'PfEd'
OS2CodePages: 00000001.00000000
OS2UnicodeRanges: 00000005.00000000.00000000.00000000
MarkAttachClasses: 1
DEI: 91125
ShortTable: cvt  2
  33
  633
EndShort
ShortTable: maxp 16
  1
  0
  14
  65
  5
  0
  0
  2
  0
  1
  1
  0
  64
  46
  0
  0
EndShort
LangName: 1033 "" "" "Regular" "" "" "Version 001.000"
GaspTable: 1 65535 2 0
Encoding: iso8859-2
UnicodeInterp: none
NameList: AGL For New Fonts
DisplaySize: -48
AntiAlias: 1
FitToEm: 0
WinInfo: 0 38 14
BeginPrivate: 0
EndPrivate
BeginChars: 259 24

StartChar: .notdef
Encoding: 256 -1 0
Width: 364
GlyphClass: 1
Flags: W
LayerCount: 2
Fore
SplineSet
33 0 m 1,0,-1
 33 666 l 1,1,-1
 298 666 l 1,2,-1
 298 0 l 1,3,-1
 33 0 l 1,0,-1
66 33 m 1,4,-1
 265 33 l 1,5,-1
 265 633 l 1,6,-1
 66 633 l 1,7,-1
 66 33 l 1,4,-1
EndSplineSet
Validated: 1
EndChar

StartChar: L
Encoding: 76 76 3
Width: 628
GlyphClass: 1
Flags: W
LayerCount: 2
Fore
SplineSet
58 0 m 1,0,1
 60 41 60 41 63 108.5 c 128,-1,2
 66 176 66 176 72.5 318.5 c 128,-1,3
 79 461 79 461 83.5 555 c 128,-1,4
 88 649 88 649 88 648 c 2,5,-1
 232 633 l 1,6,-1
 223 180 l 1,7,-1
 544 126 l 1,8,9
 541 45 541 45 544 45 c 0,10,11
 545 45 545 45 496.5 42 c 128,-1,12
 448 39 448 39 379 35 c 128,-1,13
 310 31 310 31 240.5 27.5 c 128,-1,14
 171 24 171 24 122 21 c 2,15,-1
 73 18 l 1,16,-1
 58 0 l 1,0,1
EndSplineSet
Validated: 37
EndChar

StartChar: S
Encoding: 83 83 4
Width: 594
GlyphClass: 1
Flags: W
LayerCount: 2
Fore
SplineSet
117 11 m 1,0,1
 113 14 113 14 107.5 18.5 c 128,-1,2
 102 23 102 23 85.5 35 c 128,-1,3
 69 47 69 47 55.5 57.5 c 128,-1,4
 42 68 42 68 27.5 79 c 128,-1,5
 13 90 13 90 5.5 96.5 c 128,-1,6
 -2 103 -2 103 0 103 c 0,7,8
 3 103 3 103 7.5 126.5 c 128,-1,9
 12 150 12 150 14 174 c 2,10,-1
 17 197 l 1,11,-1
 131 187 l 1,12,-1
 205 181 l 1,13,-1
 213 269 l 1,14,15
 208 274 208 274 199.5 283 c 128,-1,16
 191 292 191 292 173 311 c 128,-1,17
 155 330 155 330 143 342 c 128,-1,18
 131 354 131 354 131 353 c 128,-1,19
 131 352 131 352 113 376.5 c 128,-1,20
 95 401 95 401 77 426 c 2,21,-1
 59 451 l 1,22,-1
 133 517 l 1,23,-1
 235 619 l 1,24,-1
 391 629 l 1,25,-1
 402 619 l 2,26,27
 413 609 413 609 425 598.5 c 128,-1,28
 437 588 437 588 447 578 c 128,-1,29
 457 568 457 568 457 567 c 0,30,31
 457 565 457 565 482.5 529.5 c 128,-1,32
 508 494 508 494 509 491 c 0,33,34
 510 487 510 487 484 460 c 2,35,-1
 459 433 l 2,36,37
 459 432 459 432 428 450 c 128,-1,38
 397 468 397 468 366 486 c 2,39,-1
 335 505 l 1,40,-1
 251 487 l 1,41,42
 199 435 199 435 199 431 c 0,43,44
 199 429 199 429 230 402.5 c 128,-1,45
 261 376 261 376 293 350 c 2,46,-1
 325 323 l 1,47,-1
 325 185 l 1,48,49
 317 123 317 123 317 121 c 2,50,-1
 117 11 l 1,0,1
EndSplineSet
Validated: 33
EndChar

StartChar: a
Encoding: 97 97 5
Width: 498
GlyphClass: 1
Flags: W
LayerCount: 2
Fore
SplineSet
148 312 m 1,0,1
 148 306 148 306 147.5 297.5 c 128,-1,2
 147 289 147 289 145.5 265.5 c 128,-1,3
 144 242 144 242 144 233.5 c 128,-1,4
 144 225 144 225 145 219 c 1,5,-1
 235 234 l 1,6,-1
 247 315 l 1,7,-1
 148 312 l 1,0,1
0 429 m 1,8,-1
 325 438 l 1,9,-1
 358 345 l 1,10,-1
 376 354 l 1,11,12
 379 351 379 351 376 438 c 1,13,14
 427 438 427 438 427 435 c 2,15,-1
 442 24 l 1,16,-1
 385 18 l 1,17,-1
 340 81 l 1,18,-1
 313 21 l 1,19,-1
 70 36 l 2,20,21
 65 39 65 39 56.5 44.5 c 128,-1,22
 48 50 48 50 31 61 c 128,-1,23
 14 72 14 72 5 79.5 c 128,-1,24
 -4 87 -4 87 0 87 c 0,25,26
 10 87 10 87 5 258 c 2,27,-1
 0 429 l 1,8,-1
EndSplineSet
Validated: 33
EndChar

StartChar: b
Encoding: 98 98 6
Width: 542
GlyphClass: 1
Flags: W
LayerCount: 2
Fore
SplineSet
271 102 m 1,0,1
 349 111 349 111 352 111 c 2,2,-1
 358 162 l 1,3,-1
 310 192 l 1,4,-1
 253 165 l 1,5,-1
 271 102 l 1,0,1
88 0 m 1,6,-1
 91 567 l 1,7,-1
 187 573 l 1,8,-1
 214 219 l 1,9,10
 295 279 295 279 298 279 c 128,-1,11
 301 279 301 279 343.5 260 c 128,-1,12
 386 241 386 241 388 237 c 0,13,14
 390 234 390 234 421 174 c 128,-1,15
 452 114 452 114 454 111 c 0,16,17
 457 105 457 105 391 51 c 1,18,-1
 313 27 l 1,19,-1
 220 30 l 1,20,-1
 214 78 l 1,21,22
 184 84 184 84 184 78 c 0,23,24
 184 75 184 75 160 55.5 c 128,-1,25
 136 36 136 36 112 18 c 2,26,-1
 88 0 l 1,6,-1
EndSplineSet
Validated: 33
EndChar

StartChar: e
Encoding: 101 101 7
Width: 544
GlyphClass: 1
Flags: W
LayerCount: 2
Fore
SplineSet
208 339 m 1,0,-1
 367 354 l 1,1,2
 358 411 358 411 355 411 c 2,3,-1
 214 411 l 1,4,-1
 208 339 l 1,0,-1
85 57 m 1,5,-1
 79 459 l 1,6,-1
 445 498 l 2,7,8
 448 495 448 495 469 270 c 1,9,-1
 214 246 l 1,10,-1
 208 159 l 1,11,12
 349 147 349 147 349 144 c 0,13,14
 349 142 349 142 338.5 102 c 128,-1,15
 328 62 328 62 328 60 c 2,16,-1
 85 57 l 1,5,-1
EndSplineSet
Validated: 1
EndChar

StartChar: i
Encoding: 105 105 8
Width: 246
GlyphClass: 1
Flags: W
LayerCount: 2
Fore
SplineSet
82 462 m 1,0,-1
 142 471 l 1,1,-1
 136 537 l 1,2,-1
 88 525 l 1,3,-1
 82 462 l 1,0,-1
61 0 m 1,4,5
 61 20 61 20 62 53.5 c 128,-1,6
 63 87 63 87 64 158 c 128,-1,7
 65 229 65 229 66 275.5 c 128,-1,8
 67 322 67 322 67 321 c 0,9,10
 67 318 67 318 109 393 c 1,11,-1
 151 309 l 1,12,-1
 154 36 l 1,13,-1
 61 0 l 1,4,5
EndSplineSet
Validated: 41
EndChar

StartChar: k
Encoding: 107 107 9
Width: 508
GlyphClass: 1
Flags: W
LayerCount: 2
Fore
SplineSet
0 0 m 1,0,1
 -7 675 -7 675 0 675 c 2,2,-1
 130 669 l 1,3,4
 142 450 142 450 142 447 c 0,5,6
 142 446 142 446 189 494 c 128,-1,7
 236 542 236 542 284 590 c 2,8,-1
 331 639 l 1,9,10
 406 582 406 582 406 579 c 2,11,-1
 154 363 l 1,12,-1
 409 120 l 1,13,-1
 409 54 l 1,14,15
 199 60 199 60 193 60 c 0,16,17
 189 60 189 60 160 247 c 2,18,-1
 154 288 l 1,19,20
 154 279 154 279 146 159 c 128,-1,21
 138 39 138 39 136 39 c 2,22,-1
 0 0 l 1,0,1
EndSplineSet
Validated: 33
EndChar

StartChar: l
Encoding: 108 108 10
Width: 352
GlyphClass: 1
Flags: W
LayerCount: 2
Fore
SplineSet
64 15 m 1,0,-1
 82 588 l 1,1,2
 169 594 169 594 169 588 c 2,3,-1
 163 39 l 1,4,-1
 64 15 l 1,0,-1
EndSplineSet
Validated: 33
EndChar

StartChar: t
Encoding: 116 116 11
Width: 316
GlyphClass: 1
Flags: W
LayerCount: 2
Fore
SplineSet
91 0 m 1,0,1
 91 27 91 27 90.5 70 c 128,-1,2
 90 113 90 113 89 205 c 128,-1,3
 88 297 88 297 88.5 357.5 c 128,-1,4
 89 418 89 418 91 417 c 0,5,6
 97 414 97 414 25 420 c 1,7,-1
 19 489 l 2,8,9
 21 490 21 490 25 491 c 128,-1,10
 29 492 29 492 39.5 495 c 128,-1,11
 50 498 50 498 58 500 c 128,-1,12
 66 502 66 502 74 503.5 c 128,-1,13
 82 505 82 505 85 504 c 0,14,15
 94 501 94 501 91 582 c 1,16,17
 154 585 154 585 157 585 c 0,18,19
 158 585 158 585 156 564.5 c 128,-1,20
 154 544 154 544 152 524 c 128,-1,21
 150 504 150 504 151 504 c 2,22,-1
 217 501 l 1,23,-1
 217 420 l 1,24,-1
 145 408 l 1,25,-1
 145 60 l 1,26,-1
 91 0 l 1,0,1
EndSplineSet
Validated: 37
EndChar

StartChar: u
Encoding: 117 117 12
Width: 792
GlyphClass: 1
Flags: W
LayerCount: 2
Fore
SplineSet
79 687 m 1,0,-1
 79 18 l 1,1,-1
 781 36 l 1,2,3
 778 75 778 75 773 138 c 128,-1,4
 768 201 768 201 757.5 335 c 128,-1,5
 747 469 747 469 740 557.5 c 128,-1,6
 733 646 733 646 733 645 c 2,7,-1
 535 642 l 1,8,-1
 574 222 l 1,9,-1
 310 189 l 1,10,11
 305 221 305 221 296 272.5 c 128,-1,12
 287 324 287 324 268.5 433.5 c 128,-1,13
 250 543 250 543 238 615.5 c 128,-1,14
 226 688 226 688 226 687 c 1,15,-1
 79 687 l 1,0,-1
EndSplineSet
Validated: 37
EndChar

StartChar: scaron
Encoding: 185 353 13
Width: 608
GlyphClass: 1
Flags: W
LayerCount: 2
Fore
SplineSet
328 636 m 1,0,-1
 346 699 l 1,1,-1
 346 699 l 1,2,-1
 345 699 l 1,3,-1
 344 699 l 1,4,-1
 343 699 l 1,5,-1
 342 699 l 1,6,-1
 341 699 l 1,7,-1
 340 699 l 1,8,-1
 339 699 l 1,9,-1
 338 699 l 1,10,-1
 337 699 l 1,11,-1
 336 699 l 1,12,-1
 335 699 l 1,13,-1
 333 699 l 1,14,-1
 332 699 l 1,15,-1
 331 699 l 1,16,-1
 329 699 l 1,17,-1
 328 699 l 1,18,-1
 326 699 l 1,19,-1
 325 699 l 1,20,-1
 323 699 l 1,21,-1
 321 699 l 1,22,-1
 320 699 l 1,23,-1
 318 699 l 1,24,-1
 316 699 l 1,25,-1
 314 699 l 1,26,-1
 312 699 l 1,27,-1
 304 699 l 1,28,-1
 307 663 l 1,29,-1
 241 660 l 2,30,31
 240 663 240 663 238 667.5 c 128,-1,32
 236 672 236 672 232.5 682 c 128,-1,33
 229 692 229 692 227 698.5 c 128,-1,34
 225 705 225 705 226 705 c 0,35,36
 229 705 229 705 193 693 c 1,37,-1
 211 636 l 1,38,-1
 328 636 l 1,0,-1
328 90 m 1024,39,-1
40 0 m 1024,40,41
40 0 m 1024,42,43
40 0 m 1,44,-1
 40 183 l 1,45,-1
 178 204 l 1,46,-1
 220 162 l 1,47,-1
 298 288 l 1,48,-1
 94 507 l 1,49,50
 214 567 214 567 217 567 c 2,51,-1
 376 570 l 1,52,-1
 481 399 l 1,53,54
 442 339 442 339 442 336 c 0,55,56
 442 335 442 335 431.5 347 c 128,-1,57
 421 359 421 359 406 377 c 128,-1,58
 391 395 391 395 376 413 c 128,-1,59
 361 431 361 431 350 444 c 2,60,-1
 340 456 l 1,61,-1
 256 465 l 1,62,-1
 376 294 l 1,63,-1
 274 132 l 1,64,-1
 40 0 l 1,44,-1
EndSplineSet
Validated: 37
EndChar

StartChar: dcroat
Encoding: 240 273 15
Width: 1000
LayerCount: 2
Fore
SplineSet
221 138 m 29,0,-1
 349 134 l 25,1,-1
 337 266 l 25,2,-1
 223 266 l 25,3,-1
 221 138 l 29,0,-1
115 36 m 25,4,-1
 107 340 l 25,5,-1
 337 348 l 25,6,-1
 347 492 l 25,7,-1
 307 496 l 25,8,-1
 309 542 l 25,9,-1
 345 544 l 25,10,-1
 341 634 l 25,11,-1
 443 630 l 25,12,-1
 443 540 l 25,13,-1
 483 534 l 25,14,-1
 481 494.5 l 24,15,-1
 447 484 l 25,16,-1
 439 324 l 25,17,-1
 463 30 l 25,18,-1
 115 36 l 25,4,-1
EndSplineSet
Validated: 1
EndChar

StartChar: Zcaron
Encoding: 174 381 16
Width: 1000
LayerCount: 2
Fore
SplineSet
241 812 m 29,0,-1
 289 750 l 25,1,-1
 393 750 l 25,2,-1
 425 800 l 25,3,-1
 377 794 l 25,4,-1
 357 772 l 25,5,-1
 321 772 l 25,6,-1
 279 798 l 25,7,-1
 241 812 l 29,0,-1
75 18 m 25,8,-1
 75 100 l 25,9,-1
 443 590 l 25,10,-1
 137 594 l 25,11,-1
 125 714 l 25,12,-1
 639 698 l 25,13,-1
 233 138 l 25,14,-1
 627 144 l 25,15,-1
 645 22 l 25,16,-1
 75 18 l 25,8,-1
EndSplineSet
Validated: 9
EndChar

StartChar: Scaron
Encoding: 169 352 17
Width: 1000
LayerCount: 2
Fore
SplineSet
369 704 m 29,0,-1
 433 734 l 25,1,-1
 431 770 l 25,2,-1
 387 770 l 25,3,-1
 371 742 l 25,4,-1
 323 736 l 25,5,-1
 293 766 l 25,6,-1
 263 750 l 25,7,-1
 265 720 l 25,8,-1
 303 706 l 25,9,-1
 349 704 l 25,10,-1
 369 704 l 29,0,-1
161 22 m 25,11,-1
 71 150 l 25,12,-1
 175 166 l 25,13,-1
 219 146 l 25,14,-1
 293 176 l 25,15,-1
 333 284 l 25,16,-1
 341 367 l 24,17,-1
 283 392 l 25,18,-1
 226.5 410 l 24,19,-1
 152 453.5 l 24,20,-1
 141 552 l 25,21,-1
 189 623 l 24,22,-1
 279.25 665 l 24,23,-1
 409 660 l 25,24,-1
 523 602 l 25,25,-1
 551 510 l 25,26,-1
 557 412 l 25,27,-1
 483 450 l 25,28,-1
 425 512 l 25,29,-1
 351 556 l 24,30,-1
 267 534 l 25,31,-1
 327 474 l 25,32,-1
 404 414.5 l 24,33,-1
 465 335 l 24,34,-1
 473 244 l 25,35,-1
 445.25 135 l 24,36,-1
 367 64 l 25,37,-1
 295 24 l 25,38,-1
 161 22 l 25,11,-1
EndSplineSet
Validated: 9
EndChar

StartChar: ccaron
Encoding: 232 269 18
Width: 1000
LayerCount: 2
Fore
SplineSet
201 568 m 29,0,-1
 231 484 l 25,1,-1
 331 478 l 25,2,-1
 365 546 l 25,3,-1
 327 548 l 25,4,-1
 285 516 l 25,5,-1
 201 568 l 29,0,-1
185 16 m 25,6,-1
 53 132 l 25,7,-1
 65 268 l 25,8,-1
 87 380 l 25,9,-1
 181 422 l 25,10,-1
 273 418 l 25,11,-1
 439 342 l 25,12,-1
 403 280 l 25,13,-1
 229 306 l 25,14,-1
 207 212 l 25,15,-1
 228 126 l 24,16,-1
 323 88 l 25,17,-1
 303 36 l 25,18,-1
 185 16 l 25,6,-1
EndSplineSet
Validated: 9
EndChar

StartChar: cacute
Encoding: 230 263 19
Width: 1000
LayerCount: 2
Fore
SplineSet
227 488 m 29,0,-1
 265 442 l 25,1,-1
 365 444 l 25,2,-1
 369 500 l 25,3,-1
 311 492 l 25,4,-1
 311 466 l 25,5,-1
 283 466 l 25,6,-1
 269 496 l 25,7,-1
 227 488 l 29,0,-1
192 46 m 24,8,-1
 95 160 l 25,9,-1
 97 324 l 25,10,-1
 215 384 l 25,11,-1
 397 358 l 25,12,-1
 347 288 l 25,13,-1
 277 274 l 25,14,-1
 249 227.5 l 24,15,-1
 261 153 l 24,16,-1
 330 98 l 24,17,-1
 292.5 51 l 24,18,19
 227 26 227 26 192 46 c 24,8,-1
EndSplineSet
Validated: 41
EndChar

StartChar: Dcroat
Encoding: 208 272 20
Width: 1000
LayerCount: 2
Fore
SplineSet
190 318 m 29,0,-1
 160 313 l 25,1,-1
 168 262 l 25,2,-1
 180 160 l 25,3,-1
 212 155 l 25,4,-1
 222 194 l 25,5,-1
 224 246 l 24,6,-1
 220 297 l 25,7,-1
 210 366 l 25,8,-1
 184 409 l 25,9,-1
 150 415 l 25,10,-1
 146 402 l 25,11,-1
 176 383 l 25,12,-1
 190 318 l 29,0,-1
140 86 m 25,13,-1
 110 319 l 25,14,-1
 52 322 l 25,15,-1
 53 390.25 l 24,16,-1
 116 389 l 25,17,-1
 108 477 l 25,18,-1
 214 433 l 25,19,-1
 246 286 l 25,20,-1
 264 208 l 25,21,-1
 260 137.75 l 24,22,-1
 198 80 l 25,23,-1
 140 86 l 25,13,-1
EndSplineSet
Validated: 1
EndChar

StartChar: zcaron
Encoding: 190 382 21
Width: 1000
LayerCount: 2
Fore
SplineSet
243 598 m 29,0,-1
 293 518 l 25,1,-1
 366.5 526 l 24,2,-1
 421 582 l 25,3,-1
 371 590 l 25,4,-1
 331 554 l 25,5,-1
 307 566 l 25,6,-1
 243 598 l 29,0,-1
85 59 m 24,7,-1
 69 152 l 25,8,-1
 283 390 l 25,9,-1
 131 390 l 25,10,-1
 121 482 l 25,11,-1
 489 480 l 25,12,-1
 223 160 l 25,13,-1
 559 152 l 25,14,-1
 532 40 l 24,15,16
 329 0 329 0 85 59 c 24,7,-1
EndSplineSet
Validated: 41
EndChar

StartChar: Cacute
Encoding: 198 262 22
Width: 1000
LayerCount: 2
Fore
SplineSet
395 644 m 29,0,-1
 449 738 l 25,1,-1
 373 744 l 25,2,-1
 339 682 l 25,3,-1
 395 644 l 29,0,-1
183 40 m 25,4,-1
 41 256 l 25,5,-1
 95 500 l 25,6,-1
 238 564 l 24,7,-1
 475 572 l 25,8,-1
 513 352 l 25,9,-1
 200 424 l 24,10,-1
 217 336 l 25,11,-1
 327 202 l 25,12,-1
 397 92 l 25,13,-1
 183 40 l 25,4,-1
EndSplineSet
Validated: 9
EndChar

StartChar: Ccaron
Encoding: 200 268 23
Width: 1000
LayerCount: 2
Fore
SplineSet
261 636 m 29,0,-1
 389 616 l 25,1,-1
 413 714 l 25,2,-1
 375 716 l 25,3,-1
 345 686 l 25,4,-1
 299 700 l 25,5,-1
 255 726 l 25,6,-1
 245 698 l 25,7,-1
 261 636 l 29,0,-1
214 79 m 24,8,-1
 37 240 l 25,9,-1
 69 479 l 24,10,-1
 263 540 l 25,11,-1
 487 462 l 25,12,-1
 351 344 l 25,13,-1
 263 396 l 25,14,-1
 221 296 l 25,15,-1
 303 230 l 25,16,-1
 347 128 l 25,17,18
 300 48 300 48 214 79 c 24,8,-1
EndSplineSet
Validated: 41
EndChar
